<?xml version="1.0" encoding="UTF-8" standalone="no"?>
<!DOCTYPE svg PUBLIC "-//W3C//DTD SVG 1.1//EN" "http://www.w3.org/Graphics/SVG/1.1/DTD/svg11.dtd">
<svg width="100%" height="100%" viewBox="0 0 2960 650" version="1.1" xmlns="http://www.w3.org/2000/svg" xmlns:xlink="http://www.w3.org/1999/xlink" xml:space="preserve" xmlns:serif="http://www.serif.com/" style="fill-rule:evenodd;clip-rule:evenodd;stroke-linejoin:round;stroke-miterlimit:2;">
    <g id="Artboard1" transform="matrix(0.501695,0,0,0.288889,877.966,-1097.78)">
        <rect x="-1750" y="3800" width="5900" height="2250" style="fill:none;"/>
        <g transform="matrix(2.6059,0,0,4.5255,-8314.17,698.349)">
            <path d="M2535.49,845.684C2532.61,832.647 2531.16,818.094 2531.16,802.027C2531.16,761.357 2537.84,733.16 2551.19,717.435C2564.54,701.71 2582.32,693.848 2604.52,693.848C2605.3,693.848 2606.06,693.857 2606.83,693.876C2622.5,739.36 2645.28,781.547 2673.85,819.106L2673.85,849.758L2626.34,849.758L2626.34,786.192C2626.34,768.333 2624.67,755.856 2621.33,748.763C2617.99,741.669 2612.2,738.122 2603.94,738.122C2595.41,738.122 2589.57,741.238 2586.41,747.469C2583.25,753.701 2581.67,771.014 2581.67,799.41C2581.67,820.07 2584.3,836.986 2589.57,850.158C2594.83,863.33 2604.68,878.643 2619.13,896.097C2620.04,897.241 2620.94,898.384 2621.83,899.526C2595.32,878.484 2566.37,860.372 2535.49,845.684ZM4417.12,753.544L4417.48,1032.02C4401.39,1042.89 4386.04,1054.77 4371.53,1067.57L4371.48,910.651C4371.48,906.814 4371.6,902.074 4371.84,896.432C4372.07,890.789 4372.27,885.693 4372.44,881.144L4370.4,881.144C4369.97,885.801 4369.35,890.87 4368.53,896.351C4367.72,901.831 4366.9,906.596 4366.1,910.646L4337.09,1101.38C4318.01,1122.22 4300.87,1144.87 4285.96,1169.04L4246.87,944.72C4259.45,936.909 4271.62,928.493 4283.33,919.513L4302.86,1046.77C4303.67,1050.03 4304.39,1053.47 4305.01,1057.09C4305.64,1060.71 4306.08,1064.15 4306.35,1067.41L4307.46,1067.41C4307.84,1064.15 4308.35,1060.71 4308.97,1057.09C4309.59,1053.47 4310.31,1050.03 4311.12,1046.77L4336.95,871.134C4369.53,836.638 4396.7,796.989 4417.12,753.544ZM4448.79,1012.7L4493.75,698.434L4549.77,698.434L4588.43,962.48C4572.66,965.317 4557.17,968.979 4542.01,973.42L4528.09,868.898C4526.95,859.891 4525.62,847.512 4524.1,831.762C4522.57,816.012 4521.4,804.064 4520.61,795.917L4519.4,795.917C4518.61,804.064 4517.52,816.01 4516.13,831.757C4514.74,847.504 4513.48,859.884 4512.36,868.898L4495.97,989.701C4479.74,996.462 4463.99,1004.15 4448.79,1012.7ZM4627.48,957.216L4627.48,698.196L4696.59,698.196C4724.62,698.196 4744.44,708.334 4756.04,728.608C4767.64,748.882 4773.44,786.257 4773.44,840.732C4773.44,895.208 4767.23,932.631 4754.8,953.001C4752.7,956.44 4750.44,959.588 4748.03,962.447C4722.16,957.803 4695.52,955.38 4668.32,955.38C4654.55,955.38 4640.93,956.001 4627.48,957.216ZM2990.5,1151.37C2988.83,1149.64 2987.22,1147.82 2985.68,1145.9C2970.55,1127.12 2962.99,1099.22 2962.99,1062.21L2962.99,991.489C2978.62,993.885 2994.53,995.473 3010.65,996.21L3010.65,1063.57C3010.65,1087.99 3014.17,1105.26 3021.22,1115.39C3023.62,1118.84 3026.27,1121.71 3029.16,1123.98C3015.78,1132.44 3002.88,1141.58 2990.5,1151.37ZM2932.09,985.634L2932.09,1169.91L2885.45,1169.91L2885.45,972.377C2900.65,977.606 2916.21,982.041 2932.09,985.634ZM2846.86,957.051L2878.03,1169.91L2827.43,1169.91L2811.66,1051.61L2746.8,1051.61L2746.45,1054.18C2736.1,1033.06 2724.14,1012.87 2710.72,993.775L2727.31,877.871C2739.6,889.205 2752.53,899.862 2766.04,909.782L2752.67,1008.37L2805.9,1008.37L2795.41,929.622C2811.88,939.831 2829.06,949.005 2846.86,957.051ZM2649.32,938.011C2654.03,945.271 2658.45,952.526 2662.6,959.775C2674.72,980.951 2680.79,1011.59 2680.79,1051.7C2680.79,1096.19 2674.4,1127.7 2661.62,1146.23C2648.84,1164.76 2630.01,1174.02 2605.12,1174.02C2580.14,1174.02 2561.13,1166.33 2548.11,1150.94C2535.09,1135.55 2528.58,1109.56 2528.58,1072.97L2528.58,1009.46L2577.75,1009.46L2577.75,1070.43C2577.59,1094.25 2579.61,1110.2 2583.8,1118.29C2587.99,1126.38 2594.83,1130.43 2604.32,1130.43C2613.54,1130.43 2620.2,1126.56 2624.31,1118.82C2628.42,1111.08 2630.47,1091.64 2630.47,1060.51C2630.47,1030.58 2628.71,1009.81 2625.18,998.202C2621.66,986.592 2611.68,970.134 2595.26,948.825C2578.79,926.204 2563.99,904.651 2550.86,884.166C2546.15,876.814 2542.28,868.573 2539.26,859.444C2579.97,879.884 2617.07,906.481 2649.32,938.011ZM2743.79,1073.79L2730.75,1169.91L2685.52,1169.91L2708.48,1009.47C2721.96,1029.79 2733.8,1051.29 2743.79,1073.79ZM2618.57,694.986C2633.79,697.59 2646.12,704.665 2655.56,716.21C2667.75,731.118 2673.85,752.634 2673.85,780.756L2673.85,801.028C2650.86,768.654 2632.16,733.031 2618.57,694.986ZM4339.74,852.182L4362.39,698.196L4417.05,698.196L4417.08,726.862C4398.43,773.056 4372.12,815.353 4339.74,852.182ZM4040.03,698.196L4103.36,698.196L4103.36,743.154L4048.6,743.154L4048.6,956.345C4033.5,949.152 4017.94,942.785 4001.96,937.301L4001.96,932.597C4028.07,875.977 4042.64,812.958 4042.64,746.563C4042.64,730.221 4041.75,714.084 4040.03,698.196ZM4195.23,960.503L4195.57,698.196L4249.37,698.196L4281.47,907.398C4269.75,916.64 4257.53,925.297 4244.89,933.323L4239.88,904.597C4238.96,900.439 4238.07,895.291 4237.21,889.152C4236.34,883.013 4235.83,878.279 4235.66,874.948L4233.8,874.948C4233.8,878.225 4233.94,882.985 4234.22,889.228C4234.5,895.471 4234.64,900.674 4234.64,904.835L4234.63,939.637C4221.9,947.234 4208.75,954.203 4195.23,960.503ZM4001.96,925.166L4001.96,743.154L3947.02,743.154L3947.02,698.196L4036.96,698.196C4038.69,714.082 4039.58,730.22 4039.58,746.563C4039.58,810.107 4026.14,870.537 4001.96,925.166ZM3642.59,801.121L3657.28,698.434L3713.29,698.434L3744.45,911.202C3725.28,896.53 3707.36,880.312 3690.87,862.736C3689.91,854.508 3688.83,844.184 3687.62,831.762C3686.09,816.012 3684.93,804.064 3684.14,795.917L3682.93,795.917C3682.14,804.064 3681.05,816.01 3679.66,831.757C3679.12,837.85 3678.6,843.439 3678.1,848.524C3665.24,833.565 3653.37,817.73 3642.59,801.121ZM3791,918.258L3791,698.196L3860.83,698.196C3885.46,698.196 3904.76,707.041 3918.7,724.73C3932.65,742.419 3939.62,780.001 3939.62,837.477C3939.62,871.123 3936.44,898.365 3930.08,919.203C3914.9,916.711 3899.46,914.987 3883.81,914.074C3884.18,913.1 3884.55,912.09 3884.9,911.046C3890.16,895.303 3892.79,870.999 3892.79,838.135C3892.79,795.752 3890.08,769.243 3884.66,758.611C3879.25,747.979 3870.55,742.715 3858.58,742.82L3837.56,742.82L3837.56,913.751C3821.82,914.448 3806.28,915.964 3791,918.258ZM3676.58,863.009C3676.34,865.11 3676.11,867.073 3675.88,868.898L3663.85,957.601C3647.44,965.552 3631.59,974.482 3616.37,984.314L3640.32,816.993C3651.41,833.123 3663.53,848.493 3676.58,863.009ZM3414.39,782.079L3459.75,1050.51C3460.83,1054.21 3461.71,1061.32 3462.38,1071.84C3463.04,1082.36 3463.63,1089.29 3464.14,1092.65L3465.66,1092.65C3465.33,1089.37 3465.06,1081.98 3464.87,1070.5C3464.68,1059.02 3464.59,1051.83 3464.59,1048.94L3464.59,698.196L3504.32,698.196L3504.32,1087.63C3498.33,1095.42 3492.6,1103.41 3487.13,1111.59C3469.58,1101.78 3451.3,1093.12 3432.41,1085.7L3388.38,831.398C3387.79,829.297 3387.22,826.236 3386.66,822.215C3396.6,809.371 3405.87,795.975 3414.39,782.079ZM3384.93,806.73C3384.19,799.211 3383.7,793.71 3383.47,790.227L3381.94,790.227C3382.24,794.013 3382.52,800.483 3382.77,809.638C3370.74,825.744 3357.63,840.996 3343.54,855.286L3343.54,698.196L3400.22,698.196L3411.64,765.761C3403.48,779.934 3394.56,793.61 3384.93,806.73ZM3155.5,735.115C3158.32,729.292 3161.61,724.191 3165.39,719.812C3180.19,702.648 3200.52,694.066 3226.37,694.066C3252.16,694.066 3272.78,702.647 3288.22,719.809C3303.67,736.972 3311.39,765.235 3311.39,804.599L3311.39,884.825C3296.27,897.397 3280.3,908.971 3263.57,919.447L3263.57,808.532C3263.57,780.815 3260.09,762.274 3253.15,752.911C3246.2,743.548 3237.28,738.866 3226.39,738.866C3215.61,738.866 3207.04,743.548 3200.66,752.911C3194.29,762.274 3191.1,780.815 3191.1,808.532L3191.1,920.87C3168.1,867.376 3155.36,808.446 3155.36,746.563C3155.36,742.736 3155.41,738.919 3155.5,735.115ZM3191.1,928.478L3191.1,955.942C3175.54,962.039 3159.55,967.271 3143.18,971.58L3143.18,804.604C3143.18,779.358 3146.23,758.677 3152.32,742.563C3152.3,743.895 3152.3,745.228 3152.3,746.563C3152.3,811.352 3166.17,872.927 3191.1,928.478ZM2729.16,864.932L2752.98,698.434L2808.99,698.434L2845.01,944.401C2827.17,935.994 2809.99,926.42 2793.56,915.776L2787.31,868.898C2786.18,859.891 2784.85,847.512 2783.33,831.762C2781.8,816.012 2780.63,804.064 2779.84,795.917L2778.63,795.917C2777.84,804.064 2776.75,816.01 2775.36,831.757C2773.97,847.504 2772.71,859.884 2771.59,868.898L2767.68,897.656C2754.22,887.486 2741.35,876.557 2729.16,864.932ZM2885.45,961.033L2885.45,698.196L2932.09,698.196L2932.09,974.646C2916.2,970.957 2900.64,966.402 2885.45,961.033ZM2962.99,980.65L2962.99,804.715C2962.99,767.393 2970.29,739.614 2984.91,721.379C2999.52,703.143 3019.29,694.025 3044.23,694.025C3070.66,694.025 3090.06,701.405 3102.43,716.165C3114.79,730.924 3120.75,753.344 3120.3,783.423L3120.13,843.577L3074.62,843.577L3074.62,788.121C3073.94,768.642 3071.38,755.505 3066.92,748.712C3062.46,741.919 3055.06,738.522 3044.74,738.522C3035.11,738.522 3027.02,743.452 3020.47,753.314C3013.92,763.175 3010.65,781.5 3010.65,808.289L3010.65,985.49C2994.52,984.735 2978.62,983.106 2962.99,980.65ZM3073.39,983.99L3073.39,975.27L3042.81,975.27L3042.81,931.401L3117.86,931.386L3117.86,977.442C3103.29,980.362 3088.45,982.558 3073.39,983.99ZM4417.49,1045.01L4417.65,1169.91L4371.56,1169.91L4371.53,1081.98C4385.99,1068.66 4401.35,1056.3 4417.49,1045.01ZM4334.11,1120.94L4326.67,1169.91L4298.04,1169.91C4308.94,1152.74 4321,1136.38 4334.11,1120.94ZM4234.62,952.057L4234.56,1121.81C4222.73,1103.01 4209.52,1085.15 4195.09,1068.38L4195.21,972.295C4208.72,966.185 4221.87,959.426 4234.62,952.057ZM4494.3,1002.05L4493.44,1008.37L4546.67,1008.37L4543.45,984.165C4558.63,979.653 4574.16,975.943 4589.98,973.083L4618.8,1169.91L4568.2,1169.91L4552.43,1051.61L4487.57,1051.61L4471.53,1169.91L4426.29,1169.91L4446.86,1026.15C4462.11,1017.2 4477.94,1009.14 4494.3,1002.05ZM4738.4,971.672C4728.04,979.595 4715.51,983.557 4700.82,983.557L4674.03,983.557L4674.03,1169.91L4627.48,1169.91L4627.48,967.97C4640.93,966.725 4654.55,966.088 4668.32,966.088C4692.17,966.088 4715.58,967.998 4738.4,971.672ZM3040.43,1129.59C3043.03,1130.25 3045.77,1130.58 3048.64,1130.58C3054.67,1130.58 3059.46,1129.57 3063.01,1127.56C3066.56,1125.54 3070.03,1122.29 3073.39,1117.79L3073.39,1111.33C3087.79,1104.16 3102.63,1097.75 3117.86,1092.16L3117.86,1137.89C3113.1,1145.79 3104.91,1153.8 3093.3,1161.91C3081.68,1170.02 3066.78,1174.08 3048.61,1174.08C3028.73,1174.08 3012.06,1168.92 2998.61,1158.61C3011.95,1148.16 3025.91,1138.46 3040.43,1129.59ZM3454.22,1169.91L3446.99,1169.91L3446.19,1165.33C3449.09,1166.38 3452.01,1167.4 3454.93,1168.39C3454.69,1168.89 3454.45,1169.4 3454.22,1169.91ZM3383.26,1136.83L3383.26,1169.91L3343.54,1169.91L3343.54,1112.16C3356.31,1121.05 3369.56,1129.29 3383.26,1136.83ZM3310.2,1086.54C3307.43,1113.01 3299.87,1133.2 3287.51,1147.13C3271.58,1165.06 3251.21,1174.03 3226.38,1174.03C3200.85,1174.03 3180.6,1165.1 3165.63,1147.25C3153.56,1132.85 3146.36,1111.6 3144.02,1083.5C3159.47,1078.93 3175.26,1075.18 3191.37,1072.31C3192.25,1094.05 3195.35,1108.68 3200.66,1116.22C3207.04,1125.27 3215.61,1129.79 3226.39,1129.79C3236.96,1129.79 3245.8,1125.31 3252.9,1116.34C3259.43,1108.11 3262.95,1091.18 3263.49,1065.55C3265.18,1065.53 3266.87,1065.53 3268.56,1065.53C3274.89,1065.53 3281.19,1065.66 3287.46,1065.92C3294.8,1073.05 3302.38,1079.93 3310.2,1086.54ZM3445.59,1161.85L3434.55,1098.1C3450.63,1104.69 3466.22,1112.21 3481.28,1120.59C3472.11,1135.05 3463.75,1150.08 3456.26,1165.61C3452.68,1164.4 3449.13,1163.15 3445.59,1161.85ZM3504.32,1092.68L3504.32,1121.7C3499.54,1118.75 3494.7,1115.88 3489.81,1113.1C3494.45,1106.15 3499.29,1099.34 3504.32,1092.68ZM3504.32,1134.35L3504.32,1169.91L3469.74,1169.91C3466.2,1168.84 3462.69,1167.73 3459.19,1166.58C3466.6,1151.24 3474.88,1136.38 3483.95,1122.09C3490.86,1126 3497.65,1130.09 3504.32,1134.35ZM3459.52,1169.91L3457.6,1169.91C3457.68,1169.73 3457.77,1169.55 3457.86,1169.37C3458.41,1169.55 3458.97,1169.73 3459.52,1169.91ZM3731.47,1167.97L3715.96,1051.61L3651.1,1051.61L3635.05,1169.91L3589.82,1169.91L3615.8,988.338C3631.03,978.367 3646.91,969.31 3663.36,961.246L3656.97,1008.37L3710.2,1008.37L3701.71,944.657C3716.52,939.069 3731.72,934.255 3747.24,930.263L3779.35,1149.59C3763.84,1156.61 3747.86,1162.75 3731.47,1167.97ZM3779.81,1152.74L3782.33,1169.91L3735.41,1169.91C3750.59,1164.96 3765.4,1159.22 3779.81,1152.74ZM4234.56,1127.61L4234.55,1169.91L4194.96,1169.91L4195.08,1073.08C4209.57,1090.19 4222.78,1108.41 4234.56,1127.61ZM4048.6,1010.39L4048.6,1169.91L4001.96,1169.91L4001.96,1011.9C4004.81,1011.96 4007.66,1011.98 4010.51,1011.98C4023.34,1011.98 4036.04,1011.44 4048.6,1010.39ZM3921.47,1051.72L3953.65,1169.91L3902.76,1169.91L3881.88,1088.94C3895.82,1077.34 3909.04,1064.91 3921.47,1051.72ZM3837.56,1121.42L3837.56,1169.91L3791,1169.91L3791,1147.51C3807.08,1139.73 3822.63,1131.01 3837.56,1121.42ZM3073.39,1099.4L3073.39,994.746C3088.44,993.349 3103.28,991.208 3117.86,988.36L3117.86,1080.77C3102.65,1086.2 3087.81,1092.43 3073.39,1099.4ZM4048.6,959.737L4048.6,999.638C4036.05,1000.72 4023.34,1001.27 4010.51,1001.27C4007.66,1001.27 4004.81,1001.25 4001.96,1001.19L4001.96,940.538C4017.94,946.066 4033.51,952.486 4048.6,959.737ZM3929.14,922.151C3926.09,931.399 3922.38,939.309 3918,945.879C3912.39,954.299 3905.78,961.08 3898.19,966.222L3904.19,988.267C3863.98,978.232 3825.97,962.638 3791,942.349L3791,921.352C3806.28,919.042 3821.81,917.516 3837.56,916.814L3837.56,934.661L3858.35,934.661C3869.09,934.661 3877.15,928.796 3882.54,917.067C3898.31,917.948 3913.86,919.657 3929.14,922.151ZM3907.41,1000.07L3920.53,1048.26C3908.14,1061.51 3894.95,1074 3881.04,1085.66L3854.89,984.235C3871.93,990.542 3889.46,995.843 3907.41,1000.07ZM3839.75,978.317L3837.56,978.317L3837.56,1117.78C3822.64,1127.45 3807.09,1136.26 3791,1144.11L3791,954.681C3806.69,963.5 3822.97,971.403 3839.75,978.317ZM3746.64,926.203L3746.79,927.218C3731.28,931.194 3716.1,935.985 3701.29,941.544L3693.16,880.481C3709.75,897.068 3727.63,912.363 3746.64,926.203ZM3383.17,826.656C3383.23,829.601 3383.26,831.779 3383.26,833.19L3383.26,1069.62C3370.24,1066.19 3356.99,1063.33 3343.54,1061.06L3343.54,870.356C3357.68,856.677 3370.92,842.078 3383.17,826.656ZM3311.39,898.638L3311.39,1056.84C3301.3,1055.88 3291.1,1055.26 3280.82,1054.98C3274.89,1048.89 3269.14,1042.64 3263.57,1036.22L3263.57,932.023C3280.25,921.919 3296.22,910.76 3311.39,898.638ZM3191.1,967.424L3191.1,1058.43C3191.1,1059.46 3191.1,1060.48 3191.11,1061.48C3174.88,1064.31 3158.95,1068.01 3143.37,1072.53C3143.24,1069.15 3143.18,1065.67 3143.18,1062.11L3143.18,982.646C3159.53,978.452 3175.52,973.359 3191.1,967.424ZM3263.57,1054.84L3263.57,1040.86C3267.77,1045.63 3272.07,1050.3 3276.47,1054.88C3273.84,1054.84 3271.2,1054.82 3268.56,1054.82C3266.89,1054.82 3265.23,1054.83 3263.57,1054.84ZM3311.34,1067.59C3311.23,1072.87 3310.97,1077.95 3310.55,1082.83C3304.24,1077.44 3298.09,1071.88 3292.1,1066.15C3298.55,1066.49 3304.96,1066.97 3311.34,1067.59ZM3343.54,1108.43L3343.54,1071.92C3357,1074.25 3370.25,1077.19 3383.26,1080.71L3383.26,1133.33C3369.56,1125.72 3356.3,1117.4 3343.54,1108.43ZM4674.03,939.602L4698.66,939.602C4706.98,939.602 4713.71,934.48 4718.85,924.236C4724,913.991 4726.57,886.3 4726.57,841.163C4726.57,800.392 4724.35,773.73 4719.91,761.178C4715.47,748.625 4708.38,742.479 4698.65,742.739L4674.03,742.739L4674.03,939.602Z"/>
        </g>
    </g>
</svg>
